HIERARCHY
ROOT Hips
{
  OFFSET 0 0 0
  CHANNELS 6 Xposition Yposition Zposition Zrotation Xrotation Yrotation
  JOINT Spine
  {
    OFFSET 0 10.1816 0.131521
    CHANNELS 3 Zrotation Xrotation Yrotation
    JOINT Spine1
    {
      OFFSET 0 10.0835 -1.0008
      CHANNELS 3 Zrotation Xrotation Yrotation
      JOINT Spine2
      {
        OFFSET 0 9.10001 -1.37342
        CHANNELS 3 Zrotation Xrotation Yrotation
        JOINT Neck
        {
          OFFSET 0 16.6717 -2.51617
          CHANNELS 3 Zrotation Xrotation Yrotation
          JOINT Head
          {
            OFFSET 0 9.61788 1.68501
            CHANNELS 3 Zrotation Xrotation Yrotation
            End Site
            {
              OFFSET 0 0 0
            }
          }
        }
        JOINT LeftShoulder
        {
          OFFSET 4.57045 10.946 -2.62799
          CHANNELS 3 Zrotation Xrotation Yrotation
          JOINT LeftArm
          {
            OFFSET 10.5924 -0.524583 -2.23212
            CHANNELS 3 Zrotation Xrotation Yrotation
            JOINT LeftForeArm
            {
              OFFSET 27.8415 -8.94286e-05 3.74589e-05
              CHANNELS 3 Zrotation Xrotation Yrotation
              JOINT LeftHand
              {
                OFFSET 28.3288 -1.74407e-05 3.78045e-05
                CHANNELS 3 Zrotation Xrotation Yrotation
                End Site
                {
                  OFFSET 0 0 0
                }
              }
            }
          }
        }
        JOINT RightShoulder
        {
          OFFSET -4.56997 10.9462 -2.62802
          CHANNELS 3 Zrotation Xrotation Yrotation
          JOINT RightArm
          {
            OFFSET -10.5928 -0.524798 -2.2321
            CHANNELS 3 Zrotation Xrotation Yrotation
            JOINT RightForeArm
            {
              OFFSET -27.8415 -3.30792e-05 1.16763e-05
              CHANNELS 3 Zrotation Xrotation Yrotation
              JOINT RightHand
              {
                OFFSET -28.3288 0 5.5816e-05
                CHANNELS 3 Zrotation Xrotation Yrotation
                End Site
                {
                  OFFSET 0 0 0
                }
              }
            }
          }
        }
      }
    }
  }
  JOINT LeftUpLeg
  {
    OFFSET 8.20778 -6.75171 -1.59956
    CHANNELS 3 Zrotation Xrotation Yrotation
    JOINT LeftLeg
    {
      OFFSET 0 -44.3705 0.284643
      CHANNELS 3 Zrotation Xrotation Yrotation
      JOINT LeftFoot
      {
        OFFSET 0 -44.4279 -2.98219
        CHANNELS 3 Zrotation Xrotation Yrotation
        JOINT LeftToeBase
        {
          OFFSET 0 -8.72867 10.7106
          CHANNELS 3 Zrotation Xrotation Yrotation
          End Site
          {
            OFFSET 0 0 0
          }
        }
      }
    }
  }
  JOINT RightUpLeg
  {
    OFFSET -8.2078 -6.75166 -1.59956
    CHANNELS 3 Zrotation Xrotation Yrotation
    JOINT RightLeg
    {
      OFFSET 0 -44.3705 0.286156
      CHANNELS 3 Zrotation Xrotation Yrotation
      JOINT RightFoot
      {
        OFFSET 0 -44.4277 -2.98379
        CHANNELS 3 Zrotation Xrotation Yrotation
        JOINT RightToeBase
        {
          OFFSET 0 -8.72867 10.7106
          CHANNELS 3 Zrotation Xrotation Yrotation
          End Site
          {
            OFFSET 0 0 0
          }
        }
      }
    }
  }
}
MOTION
Frames:	11
Frame Time:	0.0333333
6.46226 89.7925 46.9346 -4.55172 2.36028 -5.38369 -11.0578 24.3325 11.11 2.40509 0.208566 0.913489 2.36489 0.169406 1.03294 2.34541 4.14944 -2.0643 7.94622 -4.54903 -10.9566 -7.76055 2.56211 1.39112 -40.1399 9.93543 -48.6472 -0.000213623 3.65812e-015 -121.422 11.2449 11.5207 -3.29564 -6.20598 0.918351 2.71664 64.7314 3.13074 27.6281 -1.88188e-006 7.34091e-006 118.757 -7.93938 -9.23127 17.7671 15.4834 -48.871 13.8579 7.68733 49.6566 -14.265 -4.99171 -2.32959 -13.0784 -6.44157e-005 -3.63991 0.0112986 -17.4444 -2.54201 -16.2745 -4.90382 59.0033 3.61667 11.7665 -0.654509 0.480373 3.99689 -8.68938 0.44147 
7.32906 89.4527 45.6273 -5.63381 2.18847 -12.3384 -10.3593 25.3745 8.99866 2.23877 -0.143817 0.661439 2.20612 -0.170219 0.77002 1.85998 4.41486 -1.29055 4.78789 -3.99949 -6.62274 -7.57641 2.39481 1.46284 -41.0122 5.50938 -47.5725 -0.000213623 3.66366e-015 -121.476 11.6142 11.0292 -3.53138 -6.62016 0.596973 2.14133 63.0688 8.35337 30.9154 -2.04918e-006 7.63786e-006 120.037 -9.58841 -10.7867 18.7224 20.7576 -47.6459 18.0661 8.24484 50.8657 -14.5914 -6.07913 -3.26002 -9.66422 -6.73991e-005 -3.42815 0.0134856 -19.4308 -5.71727 -16.9626 -6.64693 60.7395 7.08596 14.5661 -2.01875 0.5948 3.54758 -7.24874 0.319989 
8.11098 88.8352 44.2655 -6.15277 1.67662 -19.0562 -9.87564 26.0415 7.69723 2.06413 -0.367376 0.513054 2.03703 -0.386457 0.61135 1.23773 4.46832 -0.631674 1.97143 -3.58349 -3.1857 -7.46108 2.24794 1.60303 -42.0159 2.2158 -46.5286 -0.000213623 -3.67921e-015 -121.624 12.0839 11.0367 -3.68759 -7.71073 -0.0154349 1.94897 61.1586 12.0817 34.8668 -2.07123e-006 7.67587e-006 120.202 -10.8548 -11.0778 19.4257 24.8157 -46.066 21.3526 8.69254 52.3763 -14.8856 -7.25667 -4.37112 -6.30461 -9.72806e-005 -3.19271 0.0152374 -21.47 -8.24963 -17.3554 -9.28241 62.6413 10.5725 16.3722 -4.30186 0.141799 1.2421 -4.81822 0.0886148 
8.58268 88.0628 42.8454 -6.34038 0.802059 -24.8914 -9.5119 26.2593 6.99789 1.91389 -0.442616 0.440296 1.89003 -0.458041 0.530572 0.631931 4.40306 -0.133332 -0.360216 -3.18641 -0.741174 -7.44072 2.15812 1.75122 -43.2716 0.471399 -45.5737 -0.000213623 -3.72954e-015 -122.108 12.5525 11.3357 -3.80603 -8.80025 -0.586858 1.89217 59.8331 14.7011 38.0896 -2.04893e-006 7.63742e-006 120.035 -11.8027 -11.4029 20.0593 27.714 -44.322 23.7192 9.09823 53.7794 -15.1616 -8.54014 -5.28874 -3.49603 -0.00011794 -3.00785 0.0166847 -23.3186 -9.3316 -17.2699 -12.0929 63.9046 12.3347 16.4773 -6.69793 0.486551 1.38272e-007 -3.18057 -5.58907e-006 
8.56962 87.3124 41.1668 -6.4113 -0.297051 -29.5507 -9.10745 26.0877 6.61042 1.75797 -0.453718 0.413969 1.73567 -0.467441 0.495783 0.0944753 4.37921 0.223547 -2.19697 -2.65979 0.906286 -7.5361 2.12289 1.93198 -44.7042 0.135092 -44.4026 -0.000213623 1.76409e-014 -122.918 12.841 11.7336 -3.96684 -9.44271 -0.928274 1.88386 59.2927 16.7526 40.1553 -1.97118e-006 7.50133e-006 119.446 -12.4505 -11.849 20.3408 29.7783 -42.5277 25.3322 9.53016 54.4758 -14.7253 -10.1372 -5.33146 -2.15766 -0.000106709 -2.92137 0.017757 -24.3533 -8.74761 -16.6647 -14.5544 63.9467 14.3671 16.1157 -9.1558 0.831163 8.70322e-007 -2.83062 4.49144e-006 
7.95979 86.7472 38.9326 -6.26055 -1.37689 -33.0402 -8.90372 25.3722 6.49599 1.64431 -0.361159 0.421197 1.6226 -0.374697 0.496034 -0.44614 4.39806 0.493678 -3.60911 -2.03502 1.97619 -7.71914 2.09748 2.20914 -46.3178 0.619611 -42.8354 -0.000213623 3.22931e-014 -123.896 12.8374 11.9954 -3.97697 -9.53586 -0.995459 1.92241 59.3289 18.3935 41.269 -1.87028e-006 7.31973e-006 118.666 -12.6328 -12.0723 20.2818 31.2126 -40.7248 26.4271 9.84248 53.6992 -14.4482 -12.06 -4.23916 -1.16197 -7.01077e-005 -2.88745 0.0183818 -24.205 -6.90739 -15.9816 -15.6353 62.555 16.0505 17.3235 -12.1591 1.92341 1.49868 -4.71499 0.100383 
6.82923 86.4546 35.9677 -5.63409 -2.20014 -35.5717 -8.9094 23.9387 6.60321 1.50184 -0.0755044 0.462798 1.4808 -0.0900596 0.530239 -1.14235 4.41647 0.778707 -4.69163 -1.49731 2.81211 -7.93203 2.03887 2.59748 -48.0657 1.23406 -40.8076 -0.000213623 1.86241e-014 -125.011 12.664 11.9035 -3.56958 -9.32145 -0.909765 2.12428 59.6041 19.5599 42.125 -1.78469e-006 7.16096e-006 117.989 -12.3956 -12.174 19.9276 32.1216 -38.9644 27.246 9.70337 50.9054 -14.0647 -14.2561 -1.79035 -0.00637149 -2.26437e-005 -2.85027 0.0184868 -23.0966 -4.71775 -15.6743 -14.0971 59.5959 14.1656 20.1606 -16.3978 3.76233 5.57019 -9.28632 0.592103 
5.46483 86.5071 32.4167 -4.49927 -2.69385 -37.3364 -8.51271 22.0214 6.7249 1.08766 0.349383 0.542564 1.0682 0.334835 0.593705 -2.07095 4.43284 1.1536 -5.43152 -1.15644 3.68954 -8.15688 1.9652 3.01494 -49.7751 1.70797 -38.2836 -0.000213623 1.91991e-014 -126.26 12.2928 11.6624 -3.01291 -9.27207 -0.906064 2.58848 60.0326 20.2705 43.0967 -1.7164e-006 7.03096e-006 117.438 -12.0115 -12.3022 19.3203 32.3292 -37.0708 27.6529 9.0731 45.7702 -13.2165 -16.6919 2.09645 1.24351 5.86567e-005 -2.87612 0.0180011 -21.5856 -2.96913 -15.7342 -10.7244 55.2821 10.3462 22.6 -22.654 4.03986 5.76559 -13.0408 0.802675 
4.19736 86.7478 28.5273 -3.05385 -2.99489 -38.3223 -7.37633 20.2245 6.67033 0.330031 0.770655 0.637589 0.313606 0.760452 0.662273 -3.11 4.38554 1.57423 -5.89815 -0.953706 4.55384 -8.38009 1.90384 3.37635 -51.3767 1.78893 -35.8403 -0.000213623 -1.97512e-014 -127.478 11.4317 11.3347 -2.40274 -9.77271 -1.18464 3.14466 60.5604 20.4017 44.3155 -1.6507e-006 6.90293e-006 116.897 -11.5741 -12.6088 18.4798 31.5498 -34.8987 27.3707 8.29165 38.424 -12.0784 -19.2652 6.90146 1.76988 1.17202e-006 -2.17928 0.0160013 -20.6697 -2.34992 -16.006 -7.83569 52.2357 5.94769 25.3932 -33.2247 6.39018 3.05273e-006 -7.11918 9.80885e-006 
3.26168 87.2044 24.7936 -1.67816 -3.22251 -38.3882 -5.58789 18.976 6.20166 -0.54981 1.11696 0.691666 -0.562049 1.11537 0.688275 -3.97337 4.21413 1.90048 -6.32426 -0.751013 5.13561 -8.56383 1.86937 3.63171 -52.8279 1.59269 -34.0046 -0.000213623 4.35271e-015 -128.341 10.4692 10.9124 -1.97129 -10.6934 -1.67944 3.46028 60.713 20.0051 45.5466 -1.59239e-006 6.78676e-006 116.409 -11.1021 -12.9753 17.7012 31.16 -35.4397 27.055 8.57979 35.3236 -12.4103 -21.2995 10.1876 0.714327 -1.40401 0.846804 -0.0522387 -20.9318 -3.9433 -16.6754 -5.29148 52.3148 4.99085 24.345 -37.4023 7.00691 4.68904e-006 -2.17374 -2.66026e-006 
2.61522 88.2442 21.5109 -0.766089 -3.31785 -37.6427 -3.96747 18.4755 5.38508 -1.07643 1.32972 0.665366 -1.08535 1.33404 0.644161 -4.44939 4.02972 2.031 -6.80949 -0.506098 5.2492 -8.69835 1.88527 3.75031 -54.0077 1.51508 -33.1021 -0.000213623 2.01992e-014 -128.481 10.0338 10.693 -1.87513 -11.4037 -2.02089 3.37831 60.1835 19.4179 46.3827 -1.57276e-006 6.7471e-006 116.243 -10.7128 -13.0719 17.315 31.6022 -39.1379 27.2908 9.8809 39.2836 -15.2322 -22.1673 10.1186 -0.374329 -4.0246 4.83782 0.103158 -21.0016 -5.74438 -17.5895 -2.73647 53.0548 3.71967 20.5931 -37.3291 5.79841 -7.47677e-006 -0.960637 0.000736552 
